<svg xmlns="http://www.w3.org/2000/svg" height="800" width="1200" viewBox="-833.13435 -247.03125 7220.4977 1482.1875"><path d="M3747.875 3.25c-166.678 0-315.309 71.989-411.938 184.406-28.527-36.64-63.4-75.126-101.5-102.219C3154.476 25.743 3050.8 7.577 2940 4.594c-187.575-5.051-337.598 96.284-406.688 210.218-58.36-116.438-110.718-177.242-313.78-187.343H1727.45l.111 205.093s23.402 7.474 31.313 16.157c6.6 7.244 11 27.25 11 27.25l-1.156 456.5s-12.87-9.333-18-15.313c-9.55-11.128-23.094-37.437-23.094-37.437L1475.5 27.25l-319.688.219-277.78 726.187V598.22H678.124c-15.742 43.404-59.94 72.718-113.25 72.718-28.093 0-58.13-6.625-82.469-21.25-31.717-19.058-55.418-41.692-74.937-81.906-15.357-37.213-27.11-82.78-28.469-123.094 4.68-79.729 28.902-108.147 73.25-141.03 9.831-7.29 37.3-13.12 45.219-13.157 17.422-.082 31.942 10.486 39.812 26.062 11.447 22.657-5.308 50.101-21.875 69.625L677.03 497.532l249.625-261.187C839.57 97.546 680.436 4.625 498.562 4.625 223.21 4.625 0 217.614 0 480.344s216.066 461.415 498.562 482.844l35.72 1.437h380v-.187H1799v-.062l332.625-.47v-.53h52.031V767.938s-27.873-5.813-39.344-13.625c-12.045-8.203-13.187-21.125-13.187-21.125-.216-4.984.788-8.803 3.406-12.063 2.567-3.195 8.573-5.368 10.844-5.843 34.35-7.187 69.377-17.015 104.438-29.625 93.55-33.646 172.27-81.514 228.156-134.407 37.396 220.947 231.568 382.174 466.312 409.094 15.33 1.758 28.537 3.088 42.875 3.594 3.808.134 11.438-.156 11.438-.156h332l-1.01-163.377c86.341 95.846 254.557 187.72 424.352 187.72 138.735 0 263.178-60.747 350.89-135.866l-.714 112.992h419.232l2.143-172.867 109.294 1.429v-1.906l146.657 1.281v171.438h447.124V737.469s-19.09-1.224-26.562-6.437c-10.102-7.05-20.563-30.719-20.563-30.719l-62.843-417.344s1.884-27.92 10-38.344c6.677-8.576 28.562-15.718 28.562-15.718V27.469h-445.719v5.719L4680 138.907 4634.781 32.5v-5.03h-2.125l-1.219-2.845-.094 2.844H4201.25v211.438l-29.375-40C4091.19 81.277 3949.565 3.25 3788.28 3.25c-6.576 0-13.117.118-19.625.375a575.821 575.821 0 00-20.781-.375zM872.5 794.969l-.031 2.062h-1.875c.64-.684 1.27-1.375 1.906-2.062z" fill="#0c4da2"/><path d="M498.23 94.009C271.246 95.437 85.862 260.775 85.862 477.06S290.51 879.131 538.229 873.538l240.713.678V684.71h-45.463c-14.284 35.731-80.997 70.68-129.367 70.68-25.49 0-89.661-3.464-113.4-11.778-41.91-14.68-101.711-35.75-153.707-123.142-13.934-30.635-53.169-105.289-44.403-214.19 4.246-65.636 45.937-147.568 120.749-184.672 32.621-16.18 65.46-18.834 123.12-13.601 41.396 3.756 82.528 32.863 96.89 67.797 11.106 27.018 7.915 59.942-5.16 78.695-.933 1.338-.953 2.523-.76 3.8.147.973 1.408 2.592 1.408 2.592l22.784 17.8s6.487 4.507 14.064 4.305c4.4-.117 12.267-4.891 12.267-4.891l130.12-136.553C727.64 133.004 584.68 94.009 498.23 94.009zM3750 90.344c-240.638 0-435.719 181-435.719 404.281 0 223.28 195.08 404.281 435.719 404.281 240.638 0 435.719-181 435.719-404.281 0-223.28-195.08-404.281-435.719-404.281zm2.844 125.687c123.87 0 190.258 88.644 217.17 194.304 7.703 30.245 4.58 130.809-.01 164.294-13.994 102.113-97.459 201.622-218.568 198.558-118.017-2.985-196.961-57.93-221.424-205.7-7.156-43.227-7.28-95.155-1.45-138.58 16.903-125.916 100.411-212.876 224.28-212.876zM1215.625 115.438S1024.285 633.183 990 727.467c-34.286 94.286-72.844 91.438-72.844 91.438L920 876.031l231.25-.062.188-54.875s-14.839-.762-25.72-10.75c-21.102-19.372-7.75-58.344-7.75-58.344l53.47-136.781 237.468.5s46.289 115.572 57.625 153.718c14.791 49.77-31.406 50.657-31.406 50.657v55.781l292.438-.156-.188-55.157s-17.416-2.656-35.938-18.812c-21.01-18.326-35.312-56.125-35.312-56.125l-239.5-629.656zm68.656 159.187l79.281 220.719-153.562.687zm536.719-160l-1.125 63.469s18.587 5.326 36.375 25.062c9.43 10.464 3.594 143.281 3.594 143.281l-.313 425.157s6.059 16.757-14.281 33.593c-7.678 6.356-14.478 13.093-26.344 14.125l-1.406 56.563 271.031.656.657-57.531s-9.588-3.782-24.625-17.344c-8.488-7.655-13.717-18.671-13.594-29.656.228-38.407 1.126-75.31.937-112.813 94.939-22.867 176.897-61.642 208.844-73.406 120.087-47.918 213.27-123.998 207.813-259.718-1.031-96.156-49.803-174.971-154.282-192.782-47.627-13.76-69.492-16.165-88.281-17.219zm309.969 107.792c29.234-.561 63.667 6.137 90.176 19.488 33.037 21.934 53.136 44.654 53.136 92.72 1.362 22.597-5.13 42.025-16 61.781-11.318 18.891-45.555 55.156-67.172 75.903-63.2 45.181-85.817 58.427-136.024 81.538l-.804-322.097c26.757-5.047 50.758-9.16 76.688-9.333zm835.786-127.903c-226.983 1.428-412.367 166.766-412.367 383.051s204.647 402.071 452.367 396.478l240.712.678V685.214h-45.463c-14.284 35.731-80.997 70.68-129.367 70.68-25.49 0-89.66-3.464-113.399-11.778-41.91-14.68-101.712-35.75-153.708-123.142-13.934-30.635-53.169-105.289-44.402-214.19 4.245-65.636 45.936-147.568 120.748-184.672 32.621-16.18 65.461-18.834 123.121-13.601 41.396 3.756 82.528 32.863 96.889 67.797 11.107 27.018 7.915 59.942-5.16 78.695-.933 1.338-.953 2.523-.76 3.8.147.973 1.408 2.592 1.408 2.592l22.785 17.8s6.486 4.507 14.063 4.305c4.4-.117 12.267-4.891 12.267-4.891l130.121-136.553c-80.445-108.547-223.405-147.542-309.855-147.542zm1327.87 21.611l.25 54.531s23.845 6.42 33.313 13.906c10.823 8.56 8.093 23.75 8.093 23.75s-86.497 537.524-88.375 547.5c-2.02 10.733-4.881 35.809-19.968 49.75-15.003 13.863-32.313 16.657-32.313 16.657l-.25 53.781h242.188v-50.25s-19.712-1.524-32.844-14.656c-13.132-13.132-9.344-49.219-9.344-49.219l59.594-406.094 121.218 349.5 147.657 2.032 119.937-376.375 66.938 432.937s8.074 32.547-9.344 49.25c-13.404 12.854-32.813 14.656-32.813 14.656v50.25h280.563l-.25-53.781s-6.28 2.15-22.219-10.625c-9.373-7.513-13.886-41.017-15.906-51.75-1.878-9.977-77.469-550.844-77.469-550.844s-1.315-22.333 10.938-33.75c8.83-8.228 26.906-16.031 26.906-16.031l-.437-44.531-291.282-.344-106.593 307.031-101.657-307.031z" fill="#ffcb08"/><path d="M5414.724 0c-77.047 0-139.505 62.459-139.505 139.505 0 77.047 62.458 139.505 139.505 139.505 77.046 0 139.505-62.458 139.505-139.505C5554.229 62.46 5491.77 0 5414.724 0zm0 18.755c66.688 0 120.75 54.062 120.75 120.75s-54.062 120.75-120.75 120.75-120.75-54.062-120.75-120.75 54.062-120.75 120.75-120.75z" fill="#0c4da2"/><path d="M5342.906 55.25v165.156h34.844v-57.25h46.281l38.313 57.969 39.125-.25-46.75-61.438c19.195-7.837 32.781-27.167 32.781-49.812 0-29.195-22.58-52.939-50.656-53.563v-.687h-59.094v-.125zm34.844 33.344l57.969.312c11.775 2 19.594 3.21 19.276 20.902-.34 18.932-14.917 21.455-19.276 21.598l-57.969.688z" fill="#0c4da2"/></svg>